<?xml version="1.0" encoding="UTF-8" standalone="no"?>
<!-- Created with Inkscape (http://www.inkscape.org/) -->

<svg
   width="11.999999mm"
   height="12mm"
   viewBox="0 0 11.999999 12.000001"
   version="1.1"
   id="svg3363"
   inkscape:version="1.3.2 (091e20e, 2023-11-25, custom)"
   sodipodi:docname="Didiserv Springboks 2023.svg"
   xmlns:inkscape="http://www.inkscape.org/namespaces/inkscape"
   xmlns:sodipodi="http://sodipodi.sourceforge.net/DTD/sodipodi-0.dtd"
   xmlns:xlink="http://www.w3.org/1999/xlink"
   xmlns="http://www.w3.org/2000/svg"
   xmlns:svg="http://www.w3.org/2000/svg">
  <sodipodi:namedview
     id="namedview1"
     pagecolor="#ffffff"
     bordercolor="#000000"
     borderopacity="0.25"
     inkscape:showpageshadow="2"
     inkscape:pageopacity="0.0"
     inkscape:pagecheckerboard="0"
     inkscape:deskcolor="#d1d1d1"
     inkscape:document-units="mm"
     inkscape:zoom="17.881424"
     inkscape:cx="22.649203"
     inkscape:cy="18.203249"
     inkscape:window-width="1920"
     inkscape:window-height="1046"
     inkscape:window-x="-11"
     inkscape:window-y="-11"
     inkscape:window-maximized="1"
     inkscape:current-layer="layer1" />
  <defs
     id="defs3360">
    <linearGradient
       id="linearGradient10"
       inkscape:collect="always">
      <stop
         style="stop-color:#ffffff;stop-opacity:1;"
         offset="0"
         id="stop10" />
      <stop
         style="stop-color:#ffffff;stop-opacity:1;"
         offset="1"
         id="stop11" />
    </linearGradient>
    <linearGradient
       id="linearGradient5"
       inkscape:collect="always">
      <stop
         style="stop-color:#2563eb;stop-opacity:1;"
         offset="0"
         id="stop5" />
      <stop
         style="stop-color:#2563eb;stop-opacity:1;"
         offset="1"
         id="stop6" />
    </linearGradient>
    <linearGradient
       id="linearGradient3"
       inkscape:collect="always">
      <stop
         style="stop-color:#ffffff;stop-opacity:1;"
         offset="0"
         id="stop3" />
      <stop
         style="stop-color:#ffffff;stop-opacity:1;"
         offset="1"
         id="stop4" />
    </linearGradient>
    <linearGradient
       id="linearGradient1"
       inkscape:collect="always">
      <stop
         style="stop-color:#2563eb;stop-opacity:1;"
         offset="0"
         id="stop1" />
      <stop
         style="stop-color:#2563eb;stop-opacity:1;"
         offset="1"
         id="stop2" />
    </linearGradient>
    <filter
       height="1.0000017"
       y="-8.3979306e-07"
       width="1.0000042"
       x="-2.1012928e-06"
       id="filter1781"
       style="color-interpolation-filters:sRGB"
       inkscape:collect="always">
      <feGaussianBlur
         id="feGaussianBlur1783"
         stdDeviation="6.7382323e-05"
         inkscape:collect="always" />
    </filter>
    <linearGradient
       inkscape:collect="always"
       xlink:href="#linearGradient1"
       id="linearGradient2"
       x1="647.5354"
       y1="618.88312"
       x2="655.26544"
       y2="618.88312"
       gradientUnits="userSpaceOnUse"
       gradientTransform="translate(1.3885121,1.3580633)" />
    <linearGradient
       inkscape:collect="always"
       xlink:href="#linearGradient3"
       id="linearGradient4"
       x1="112.10925"
       y1="172.74121"
       x2="189.07056"
       y2="172.74121"
       gradientUnits="userSpaceOnUse" />
    <linearGradient
       inkscape:collect="always"
       xlink:href="#linearGradient5"
       id="linearGradient6"
       x1="657.29529"
       y1="618.94122"
       x2="666.27911"
       y2="618.94122"
       gradientUnits="userSpaceOnUse"
       gradientTransform="translate(-8.9982734,1.300011)" />
    <linearGradient
       inkscape:collect="always"
       xlink:href="#linearGradient10"
       id="linearGradient11"
       x1="667.6795"
       y1="612.03595"
       x2="676.08173"
       y2="612.03595"
       gradientUnits="userSpaceOnUse"
       gradientTransform="translate(-19.091678,8.2052654)" />
  </defs>
  <g
     inkscape:label="Layer 1"
     inkscape:groupmode="layer"
     id="layer1"
     transform="translate(-17.014721,-894.16821)">
    <rect
       style="display:inline;fill:url(#linearGradient6);fill-rule:evenodd;stroke-width:0.366687"
       id="rect856"
       width="8.9838505"
       height="8.9838505"
       x="648.297"
       y="615.74921"
       ry="2.5668142"
       inkscape:transform-center-x="0.47291774"
       inkscape:transform-center-y="-8.1121297"
       transform="rotate(45)"
       inkscape:export-filename="C:\Users\siphe\OneDrive\Idesktophu\Didiserv Wide Logo 2 2022 Blue.png"
       inkscape:export-xdpi="96"
       inkscape:export-ydpi="96" />
    <rect
       style="fill:url(#linearGradient11);fill-rule:evenodd;stroke-width:0.342947"
       id="rect2119"
       width="8.4022055"
       height="8.4022055"
       x="648.58783"
       y="616.04004"
       ry="2.40063"
       inkscape:transform-center-x="0.46432922"
       inkscape:transform-center-y="-7.9652725"
       transform="rotate(45)"
       inkscape:export-filename="C:\Users\siphe\OneDrive\Idesktophu\Didiserv Wide Logo 2022 Blue.png"
       inkscape:export-xdpi="96"
       inkscape:export-ydpi="96" />
    <rect
       style="fill:url(#linearGradient2);fill-rule:evenodd;stroke-width:0.31551"
       id="rect2121"
       width="7.7300291"
       height="7.7300291"
       x="648.92389"
       y="616.37616"
       ry="2.2085795"
       inkscape:transform-center-x="0.42681588"
       inkscape:transform-center-y="-7.3277544"
       transform="rotate(45)"
       inkscape:export-filename="C:\Users\siphe\OneDrive\Idesktophu\Didiserv Wide Logo 2022 Blue.png"
       inkscape:export-xdpi="96"
       inkscape:export-ydpi="96" />
    <path
       id="path2123"
       style="color:#000000;font-style:normal;font-variant:normal;font-weight:normal;font-stretch:normal;font-size:medium;line-height:normal;font-family:sans-serif;font-variant-ligatures:normal;font-variant-position:normal;font-variant-caps:normal;font-variant-numeric:normal;font-variant-alternates:normal;font-variant-east-asian:normal;font-feature-settings:normal;font-variation-settings:normal;text-indent:0;text-align:start;text-decoration:none;text-decoration-line:none;text-decoration-style:solid;text-decoration-color:#000000;letter-spacing:normal;word-spacing:normal;text-transform:none;writing-mode:lr-tb;direction:ltr;text-orientation:mixed;dominant-baseline:auto;baseline-shift:baseline;text-anchor:start;white-space:normal;shape-padding:0;shape-margin:0;inline-size:0;clip-rule:nonzero;display:inline;overflow:visible;visibility:visible;isolation:auto;mix-blend-mode:normal;color-interpolation:sRGB;color-interpolation-filters:linearRGB;solid-color:#000000;solid-opacity:1;vector-effect:none;fill:url(#linearGradient4);fill-opacity:1;fill-rule:nonzero;stroke:none;stroke-width:8.64918;stroke-linecap:round;stroke-linejoin:round;stroke-miterlimit:4;stroke-dasharray:none;stroke-dashoffset:0;stroke-opacity:1;filter:url(#filter1781);color-rendering:auto;image-rendering:auto;shape-rendering:auto;text-rendering:auto;enable-background:accumulate;stop-color:#000000"
       d="m 116.98242,76.457031 a 4.3246053,4.3246053 0 0 0 -4.32422,4.324219 4.3246053,4.3246053 0 0 0 0.002,0.08984 c 0.0484,21.00855 17.18353,38.1172 38.20312,38.11719 21.0102,0 38.14136,-17.09415 38.20508,-38.089846 a 4.3246053,4.3246053 0 0 0 0.002,-0.117188 4.3246053,4.3246053 0 0 0 -4.32617,-4.324219 z m 4.63086,8.650391 h 58.50195 c -2.08116,14.313872 -14.34298,25.238278 -29.25195,25.238278 -14.90898,0 -27.16902,-10.924402 -29.25,-25.238278 z m 9.34961,39.255858 a 2.9138079,2.9138079 0 0 0 -2.91601,2.91602 2.9138079,2.9138079 0 0 0 2.91601,2.9082 h 38.70313 a 2.9138079,2.9138079 0 0 0 2.91601,-2.9082 2.9138079,2.9138079 0 0 0 -2.91601,-2.91602 z m 0.043,15.51563 a 2.9138079,2.9138079 0 0 0 -2.91602,2.9082 2.9138079,2.9138079 0 0 0 2.91602,2.91601 h 38.61523 a 2.9138079,2.9138079 0 0 0 2.91602,-2.91601 2.9138079,2.9138079 0 0 0 -2.91602,-2.9082 z m -3.11524,15.50976 a 2.9138079,2.9138079 0 0 0 -2.91601,2.91602 2.9138079,2.9138079 0 0 0 2.91601,2.91601 h 44.84571 a 2.9138079,2.9138079 0 0 0 2.91601,-2.91601 2.9138079,2.9138079 0 0 0 -2.91601,-2.91602 z m -2.92187,15.51758 a 2.9138079,2.9138079 0 0 0 -2.91602,2.91602 2.9138079,2.9138079 0 0 0 2.91602,2.9082 h 50.69727 a 2.9138079,2.9138079 0 0 0 2.91015,-2.9082 2.9138079,2.9138079 0 0 0 -2.91015,-2.91602 z m -2.82031,15.50781 a 2.9138079,2.9138079 0 0 0 -2.90821,2.91602 2.9138079,2.9138079 0 0 0 2.90821,2.91601 h 56.33008 a 2.9138079,2.9138079 0 0 0 2.91601,-2.91601 2.9138079,2.9138079 0 0 0 -2.91601,-2.91602 z m -3.6836,15.51758 a 2.9138079,2.9138079 0 0 0 -2.9082,2.91602 2.9138079,2.9138079 0 0 0 2.9082,2.91601 h 63.69727 a 2.9138079,2.9138079 0 0 0 2.91601,-2.91601 2.9138079,2.9138079 0 0 0 -2.91601,-2.91602 z m -3.43945,15.51758 a 2.9138079,2.9138079 0 0 0 -2.91601,2.9082 2.9138079,2.9138079 0 0 0 2.91601,2.91602 h 70.57813 a 2.9138079,2.9138079 0 0 0 2.91601,-2.91602 2.9138079,2.9138079 0 0 0 -2.91601,-2.9082 z m 12.85156,15.85547 a 2.5706455,2.5706455 0 0 0 -2.57031,2.56836 2.5706455,2.5706455 0 0 0 2.57031,2.57031 h 44.875 a 2.5706455,2.5706455 0 0 0 2.56836,-2.57031 2.5706455,2.5706455 0 0 0 -2.56836,-2.56836 z m 15.73828,15.39062 a 2.6911748,2.6911748 0 0 0 -2.69531,2.69531 2.6911748,2.6911748 0 0 0 2.69531,2.6875 h 13.39844 a 2.6911748,2.6911748 0 0 0 2.69336,-2.6875 2.6911748,2.6911748 0 0 0 -2.69336,-2.69531 z m 5.49805,16.07813 a 2.1255873,2.1255873 0 0 0 -2.125,2.12695 2.1255873,2.1255873 0 0 0 2.125,2.125 h 2.4082 a 2.1255873,2.1255873 0 0 0 2.125,-2.125 2.1255873,2.1255873 0 0 0 -2.125,-2.12695 z"
       transform="matrix(0.03828174,0,0,0.03828174,17.249878,893.55541)"
       inkscape:export-filename="C:\Users\siphe\OneDrive\Idesktophu\Didiserv Wide Logo 2022 Blue.png"
       inkscape:export-xdpi="96"
       inkscape:export-ydpi="96" />
  </g>
</svg>
